#N canvas 49 87 1280 686 10;
#X obj -155 136 s ssc1;
#X obj -141 169 s ssc2;
#X obj -123 199 s ssc3;
#X obj -106 229 s ssc4;
#X obj -91 259 s ssc5;
#X obj -1834 85 hradio 35 1 0 6 empty empty empty 0 -8 0 10 -261338
-1 -1 0;
#X obj -1832 126 tgl 33 0 empty empty empty 17 7 0 10 -262144 -1 -1
0 1;
#X obj -1795 126 tgl 33 0 empty empty empty 17 7 0 10 -262144 -1 -1
0 1;
#X obj -1758 127 tgl 33 0 empty empty empty 17 7 0 10 -262144 -1 -1
0 1;
#X obj -1725 122 tgl 33 0 empty empty empty 17 7 0 10 -262144 -1 -1
0 1;
#X obj -1690 122 tgl 33 0 empty empty empty 17 7 0 10 -262144 -1 -1
0 1;
#X obj -1655 122 tgl 33 0 empty empty empty 17 7 0 10 -262144 -1 -1
0 1;
#X obj -2003 -5 f;
#X obj -1945 -40 + 1;
#X floatatom -2000 32 5 0 0 0 - - -;
#X obj -1905 94 nbx 5 20 -1e+37 1e+37 0 0 empty empty Time 0 -8 0 10
-262144 -1 -1 0 256;
#X obj -1971 88 bng 25 250 50 0 empty empty Start 28 7 0 10 -258113
-1 -1;
#X msg -1775 273 0;
#X obj -1352 336 + 0;
#X msg -1727 273 1;
#X msg -1682 272 2;
#X msg -1638 273 3;
#X msg -1588 271 4;
#X msg -1543 272 5;
#X text -1629 365 RECORDING;
#X text -1629 341 note info;
#X text -1460 338 step position;
#X obj -1547 339 +;
#X floatatom -2588 234 5 0 0 0 - - -;
#X floatatom -2466 233 5 0 0 0 - - -;
#X floatatom -2352 227 5 0 0 0 - - -;
#X floatatom -2597 384 5 0 0 0 - - -;
#X floatatom -2484 387 5 0 0 0 - - -;
#X floatatom -2362 383 5 0 0 0 - - -;
#X msg -2337 138 2;
#X msg -2597 279 3;
#X msg -2484 282 4;
#X msg -2362 278 5;
#X msg -1708 -16 0;
#X msg -1464 382 set array\$1;
#X obj -1746 383 tabwrite;
#X obj -2361 175 tabread array\$1;
#X obj -2464 183 tabread array\$1;
#X obj -2597 183 tabread array\$1;
#X obj -2371 332 tabread array\$1;
#X obj -2493 338 tabread array\$1;
#X obj -2606 333 tabread array\$1;
#X msg -2588 129 0;
#X msg -2466 128 1;
#X obj -2029 -46 metro 150;
#X obj -2267 430 tabread array1;
#X obj -2246 501 spigot;
#X obj -2220 467 == 1;
#X obj -2129 501 spigot;
#X obj -2103 467 == 1;
#X obj -2143 431 tabread array2;
#X obj -2023 505 spigot;
#X obj -1997 471 == 1;
#X obj -2037 435 tabread array3;
#X obj -1909 499 spigot;
#X obj -1883 465 == 1;
#X obj -1923 429 tabread array4;
#X obj -1807 501 spigot;
#X obj -1781 467 == 1;
#X obj -1821 431 tabread array5;
#X floatatom -1373 362 5 1 5 0 Layer - -;
#X obj -1893 9 r t;
#X msg -2092 -23 0;
#X obj -1969 135 bng 25 250 50 0 empty empty Stop 28 7 0 10 -260097
-1 -1;
#X obj -2046 65 bng 15 250 50 0 empty empty empty 17 7 0 10 -262144
-1 -1;
#X obj -1947 14 mod 5;
#X obj -2229 554 s layer1;
#X obj -2112 554 s layer2;
#X obj -2006 558 s layer3;
#X obj -1892 552 s layer4;
#X obj -1790 554 s layer5;
#X obj -2229 704 spigot;
#X obj -2203 670 == 1;
#X obj -2112 704 spigot;
#X obj -2086 670 == 1;
#X obj -2006 708 spigot;
#X obj -1980 674 == 1;
#X obj -1892 702 spigot;
#X obj -1866 668 == 1;
#X obj -1790 704 spigot;
#X obj -1764 670 == 1;
#X obj -2250 633 tabread array6;
#X obj -2126 634 tabread array7;
#X obj -2020 638 tabread array8;
#X obj -1906 632 tabread array9;
#X obj -1804 634 tabread array10;
#X obj -2221 871 spigot;
#X obj -2195 837 == 1;
#X obj -2104 871 spigot;
#X obj -2078 837 == 1;
#X obj -1998 875 spigot;
#X obj -1972 841 == 1;
#X obj -1884 869 spigot;
#X obj -1858 835 == 1;
#X obj -1748 869 spigot;
#X obj -1722 835 == 1;
#X obj -2242 800 tabread array11;
#X obj -2118 801 tabread array12;
#X obj -2012 805 tabread array13;
#X obj -1898 799 tabread array14;
#X obj -1762 799 tabread array15;
#X obj -2210 1033 spigot;
#X obj -2184 999 == 1;
#X obj -2093 1033 spigot;
#X obj -2067 999 == 1;
#X obj -1967 1037 spigot;
#X obj -1941 1003 == 1;
#X obj -1853 1031 spigot;
#X obj -1827 997 == 1;
#X obj -1717 1031 spigot;
#X obj -1691 997 == 1;
#X obj -2231 962 tabread array16;
#X obj -2107 963 tabread array17;
#X obj -1981 967 tabread array18;
#X obj -1867 961 tabread array19;
#X obj -1731 961 tabread array20;
#N canvas 0 22 450 300 (subpatch) 0;
#X array array1 6 float 3;
#A 0 0 0 0 0 1 0;
#X coords 0 1 6 0 200 140 1 0 0;
#X restore -1499 466 graph;
#N canvas 0 22 450 300 (subpatch) 0;
#X array array2 6 float 3;
#A 0 0 0 0 0 1 0;
#X coords 0 1 6 0 200 140 1 0 0;
#X restore -1299 465 graph;
#N canvas 0 22 450 300 (subpatch) 0;
#X array array6 6 float 3;
#A 0 0 0 0 0 1 0;
#X coords 0 1 6 0 200 140 1 0 0;
#X restore -1499 627 graph;
#N canvas 0 22 450 300 (subpatch) 0;
#X array array7 6 float 3;
#A 0 0 0 0 0 1 0;
#X coords 0 1 6 0 200 140 1 0 0;
#X restore -1299 627 graph;
#N canvas 0 22 450 300 (subpatch) 0;
#X array array11 6 float 3;
#A 0 0 0 0 0 1 0;
#X coords 0 1 6 0 200 140 1 0 0;
#X restore -1496 788 graph;
#N canvas 0 22 450 300 (subpatch) 0;
#X array array12 6 float 3;
#A 0 0 0 0 0 1 0;
#X coords 0 1 6 0 200 140 1 0 0;
#X restore -1296 787 graph;
#N canvas 0 22 450 300 (subpatch) 0;
#X array array16 6 float 3;
#A 0 0 0 0 0 1 0;
#X coords 0 1 6 0 200 140 1 0 0;
#X restore -1496 950 graph;
#N canvas 0 22 450 300 (subpatch) 0;
#X array array17 6 float 3;
#A 0 0 0 0 0 1 0;
#X coords 0 1 6 0 200 140 1 0 0;
#X restore -1296 949 graph;
#N canvas 0 22 450 300 (subpatch) 0;
#X array array5 6 float 3;
#A 0 0 0 0 0 1 0;
#X coords 0 1 6 0 200 140 1 0 0;
#X restore -670 468 graph;
#N canvas 0 22 450 300 (subpatch) 0;
#X array array20 6 float 3;
#A 0 0 0 0 0 1 0;
#X coords 0 1 6 0 200 140 1 0 0;
#X restore -672 951 graph;
#N canvas 0 22 450 300 (subpatch) 0;
#X array array10 6 float 3;
#A 0 0 0 0 0 1 0;
#X coords 0 1 6 0 200 140 1 0 0;
#X restore -670 630 graph;
#N canvas 0 22 450 300 (subpatch) 0;
#X array array15 6 float 3;
#A 0 0 0 0 0 1 0;
#X coords 0 1 6 0 200 140 1 0 0;
#X restore -671 789 graph;
#N canvas 0 22 450 300 (subpatch) 0;
#X array array13 6 float 3;
#A 0 0 0 0 0 1 0;
#X coords 0 1 6 0 200 140 1 0 0;
#X restore -1079 790 graph;
#N canvas 0 22 450 300 (subpatch) 0;
#X array array14 6 float 3;
#A 0 0 0 0 0 1 0;
#X coords 0 1 6 0 200 140 1 0 0;
#X restore -878 790 graph;
#N canvas 0 22 450 300 (subpatch) 0;
#X array array18 6 float 3;
#A 0 0 0 0 0 1 0;
#X coords 0 1 6 0 200 140 1 0 0;
#X restore -1078 953 graph;
#N canvas 0 22 450 300 (subpatch) 0;
#X array array19 6 float 3;
#A 0 0 0 0 0 1 0;
#X coords 0 1 6 0 200 140 1 0 0;
#X restore -878 952 graph;
#N canvas 0 22 450 300 (subpatch) 0;
#X array array3 6 float 3;
#A 0 0 0 0 0 1 0;
#X coords 0 1 6 0 200 140 1 0 0;
#X restore -1081 468 graph;
#N canvas 0 22 450 300 (subpatch) 0;
#X array array4 6 float 3;
#A 0 0 0 0 0 1 0;
#X coords 0 1 6 0 200 140 1 0 0;
#X restore -881 467 graph;
#N canvas 0 22 450 300 (subpatch) 0;
#X array array8 6 float 3;
#A 0 0 0 0 0 1 0;
#X coords 0 1 6 0 200 140 1 0 0;
#X restore -1081 630 graph;
#N canvas 0 22 450 300 (subpatch) 0;
#X array array9 6 float 3;
#A 0 0 0 0 0 1 0;
#X coords 0 1 6 0 200 140 1 0 0;
#X restore -881 629 graph;
#X obj -2212 757 s layer6;
#X obj -2095 757 s layer7;
#X obj -1989 761 s layer8;
#X obj -1875 755 s layer9;
#X obj -1773 757 s layer10;
#X obj -2204 924 s layer11;
#X obj -2087 924 s layer12;
#X obj -1981 928 s layer13;
#X obj -1867 922 s layer14;
#X obj -1731 922 s layer15;
#X obj -2193 1086 s layer16;
#X obj -2076 1086 s layer17;
#X obj -1949 1090 s layer18;
#X obj -1836 1084 s layer19;
#X obj -1700 1084 s layer20;
#X obj -155 106 route 0 1 2 3 4 5 6 7 8 9 10 11 12 13 14 15 16 17 18
19;
#X obj -76 282 s ssc6;
#X obj -61 307 s ssc7;
#X obj -43 337 s ssc8;
#X obj -26 367 s ssc9;
#X obj -11 397 s ssc10;
#X obj 8 367 s ssc11;
#X obj 23 333 s ssc12;
#X obj 41 306 s ssc13;
#X obj 58 279 s ssc14;
#X obj 73 255 s ssc15;
#X obj 90 231 s ssc16;
#X obj 106 208 s ssc17;
#X obj 122 184 s ssc18;
#X obj 139 158 s ssc19;
#X obj 155 134 s ssc20;
#X obj 264 31 r ssc1;
#N canvas 0 23 1280 751 layer1 0;
#X obj 484 130 soundfiler;
#X floatatom 498 151 20 0 0 0 - - -;
#X obj 486 233 phasor~;
#X floatatom 553 197 5 0 0 0 - - -;
#X obj 485 291 *~;
#X obj 485 386 *~;
#X msg 493 200 0;
#X obj 179 153 bng 25 250 50 0 empty empty PLAY 0 -5 0 10 -4034 -1
-1;
#X obj 152 448 hsl 195 15 0 1 0 0 empty empty empty -2 -8 0 10 -262144
-1 -1 0 1;
#X obj 486 262 unsig~ 50;
#X obj 279 371 knob 32 32 0 1 0 0 empty empty position 0 -8 0 8 -262144
-1 -1 0 1;
#X msg 597 423 0;
#X obj 294 153 bng 25 250 50 0 empty empty STOP 0 -5 0 10 -258113 -1
-1;
#X obj 188 419 hsl 128 15 0 2 0 0 empty empty Pitch -2 -8 0 10 -262144
-1 -1 0 1;
#X obj 525 199 *~;
#X msg 618 233 1;
#X obj 485 356 lop~;
#X obj 181 372 knob 32 32 0.2 20000 0 0 empty empty tone 0 -8 0 8 -262144
-1 -1 1200 1;
#X obj 540 234 expr 1 /$f1;
#X obj 551 262 * 1000;
#X obj 524 288 delay;
#X obj 231 372 knob 32 32 0 1 0 0 empty empty Nivel 0 -8 0 8 -262144
-1 -1 2000 1;
#X msg 45 179 1;
#X obj 485 174 expr 44100 /$f1;
#N canvas 0 22 450 300 (subpatch) 0;
#X array layer1 156672 float 2;
#X coords 0 1 156672 -1 200 140 1 0 0;
#X restore 148 203 graph;
#X obj 625 565 cnv 15 100 60 empty empty empty 20 12 0 14 -233017 -66577
0;
#X text 150 432 position;
#X obj 484 72 inlet;
#X msg 484 103 read -resize \$1 layer1;
#X obj 485 325 tabread4~ layer1;
#X obj 484 549 outlet~;
#X text 162 119 comment;
#X connect 0 0 1 0;
#X connect 0 0 4 1;
#X connect 0 0 23 0;
#X connect 0 0 7 0;
#X connect 2 0 4 0;
#X connect 2 0 9 0;
#X connect 3 0 14 1;
#X connect 3 0 18 0;
#X connect 3 0 2 0;
#X connect 4 0 29 0;
#X connect 5 0 30 0;
#X connect 6 0 2 0;
#X connect 7 0 3 0;
#X connect 7 0 10 0;
#X connect 7 0 15 0;
#X connect 7 0 20 0;
#X connect 7 0 22 0;
#X connect 9 0 8 0;
#X connect 10 0 2 1;
#X connect 11 0 2 0;
#X connect 11 0 13 0;
#X connect 11 0 10 0;
#X connect 12 0 11 0;
#X connect 13 0 14 0;
#X connect 14 0 2 0;
#X connect 16 0 5 0;
#X connect 17 0 16 1;
#X connect 18 0 19 0;
#X connect 19 0 20 1;
#X connect 21 0 5 1;
#X connect 22 0 13 0;
#X connect 23 0 3 0;
#X connect 23 0 2 0;
#X connect 27 0 28 0;
#X connect 28 0 0 0;
#X connect 29 0 16 0;
#X coords 0 -1 1 1 300 400 1 100 100;
#X restore 264 54 pd layer1;
#N canvas 0 23 1280 751 layer1 0;
#X obj 484 130 soundfiler;
#X floatatom 498 151 20 0 0 0 - - -;
#X obj 486 233 phasor~;
#X floatatom 553 197 5 0 0 0 - - -;
#X obj 485 291 *~;
#X obj 485 386 *~;
#X msg 493 200 0;
#X obj 179 153 bng 25 250 50 0 empty empty PLAY 0 -5 0 10 -4034 -1
-1;
#X obj 152 448 hsl 195 15 0 1 0 0 empty empty empty -2 -8 0 10 -262144
-1 -1 0 1;
#X obj 486 262 unsig~ 50;
#X obj 279 371 knob 32 32 0 1 0 0 empty empty position 0 -8 0 8 -262144
-1 -1 0 1;
#X msg 597 423 0;
#X obj 294 153 bng 25 250 50 0 empty empty STOP 0 -5 0 10 -258113 -1
-1;
#X obj 188 419 hsl 128 15 0 2 0 0 empty empty Pitch -2 -8 0 10 -262144
-1 -1 0 1;
#X obj 525 199 *~;
#X msg 618 233 1;
#X obj 485 356 lop~;
#X obj 181 372 knob 32 32 0.2 20000 0 0 empty empty tone 0 -8 0 8 -262144
-1 -1 3100 1;
#X obj 540 234 expr 1 /$f1;
#X obj 551 262 * 1000;
#X obj 524 288 delay;
#X obj 231 372 knob 32 32 0 1 0 0 empty empty Nivel 0 -8 0 8 -262144
-1 -1 2300 1;
#X msg 45 179 1;
#X obj 485 174 expr 44100 /$f1;
#N canvas 0 22 450 300 (subpatch) 0;
#X array layer2 1.57766e+06 float 2;
#X coords 0 1 1.57766e+06 -1 200 140 1 0 0;
#X restore 148 203 graph;
#X obj 625 565 cnv 15 100 60 empty empty empty 20 12 0 14 -233017 -66577
0;
#X text 150 432 position;
#X obj 484 72 inlet;
#X obj 484 549 outlet~;
#X text 162 119 comment;
#X msg 484 103 read -resize \$1 layer2;
#X obj 485 325 tabread4~ layer2;
#X connect 0 0 1 0;
#X connect 0 0 4 1;
#X connect 0 0 23 0;
#X connect 0 0 7 0;
#X connect 2 0 4 0;
#X connect 2 0 9 0;
#X connect 3 0 14 1;
#X connect 3 0 18 0;
#X connect 3 0 2 0;
#X connect 4 0 31 0;
#X connect 5 0 28 0;
#X connect 6 0 2 0;
#X connect 7 0 3 0;
#X connect 7 0 10 0;
#X connect 7 0 15 0;
#X connect 7 0 20 0;
#X connect 7 0 22 0;
#X connect 9 0 8 0;
#X connect 10 0 2 1;
#X connect 11 0 2 0;
#X connect 11 0 13 0;
#X connect 11 0 10 0;
#X connect 12 0 11 0;
#X connect 13 0 14 0;
#X connect 14 0 2 0;
#X connect 16 0 5 0;
#X connect 17 0 16 1;
#X connect 18 0 19 0;
#X connect 19 0 20 1;
#X connect 21 0 5 1;
#X connect 22 0 13 0;
#X connect 23 0 3 0;
#X connect 23 0 2 0;
#X connect 27 0 30 0;
#X connect 30 0 0 0;
#X connect 31 0 16 0;
#X coords 0 -1 1 1 300 400 1 100 100;
#X restore 577 52 pd layer1;
#N canvas 0 23 1280 751 layer1 0;
#X obj 484 130 soundfiler;
#X floatatom 498 151 20 0 0 0 - - -;
#X obj 486 233 phasor~;
#X floatatom 553 197 5 0 0 0 - - -;
#X obj 485 291 *~;
#X obj 485 386 *~;
#X msg 493 200 0;
#X obj 179 153 bng 25 250 50 0 empty empty PLAY 0 -5 0 10 -4034 -1
-1;
#X obj 152 448 hsl 195 15 0 1 0 0 empty empty empty -2 -8 0 10 -262144
-1 -1 0 1;
#X obj 486 262 unsig~ 50;
#X obj 279 371 knob 32 32 0 1 0 0 empty empty position 0 -8 0 8 -262144
-1 -1 0 1;
#X msg 597 423 0;
#X obj 294 153 bng 25 250 50 0 empty empty STOP 0 -5 0 10 -258113 -1
-1;
#X obj 188 419 hsl 128 15 0 2 0 0 empty empty Pitch -2 -8 0 10 -262144
-1 -1 0 1;
#X obj 525 199 *~;
#X msg 618 233 1;
#X obj 485 356 lop~;
#X obj 181 372 knob 32 32 0.2 20000 0 0 empty empty tone 0 -8 0 8 -262144
-1 -1 3100 1;
#X obj 540 234 expr 1 /$f1;
#X obj 551 262 * 1000;
#X obj 524 288 delay;
#X obj 231 372 knob 32 32 0 1 0 0 empty empty Nivel 0 -8 0 8 -262144
-1 -1 1900 1;
#X msg 45 179 1;
#X obj 485 174 expr 44100 /$f1;
#N canvas 0 22 450 300 (subpatch) 0;
#X array layer3 1.62202e+06 float 2;
#X coords 0 1 1.62202e+06 -1 200 140 1 0 0;
#X restore 148 203 graph;
#X obj 625 565 cnv 15 100 60 empty empty empty 20 12 0 14 -233017 -66577
0;
#X text 150 432 position;
#X obj 484 72 inlet;
#X obj 484 549 outlet~;
#X text 162 119 comment;
#X msg 484 103 read -resize \$1 layer3;
#X obj 485 325 tabread4~ layer3;
#X connect 0 0 1 0;
#X connect 0 0 4 1;
#X connect 0 0 23 0;
#X connect 0 0 7 0;
#X connect 2 0 4 0;
#X connect 2 0 9 0;
#X connect 3 0 14 1;
#X connect 3 0 18 0;
#X connect 3 0 2 0;
#X connect 4 0 31 0;
#X connect 5 0 28 0;
#X connect 6 0 2 0;
#X connect 7 0 3 0;
#X connect 7 0 10 0;
#X connect 7 0 15 0;
#X connect 7 0 20 0;
#X connect 7 0 22 0;
#X connect 9 0 8 0;
#X connect 10 0 2 1;
#X connect 11 0 2 0;
#X connect 11 0 13 0;
#X connect 11 0 10 0;
#X connect 12 0 11 0;
#X connect 13 0 14 0;
#X connect 14 0 2 0;
#X connect 16 0 5 0;
#X connect 17 0 16 1;
#X connect 18 0 19 0;
#X connect 19 0 20 1;
#X connect 21 0 5 1;
#X connect 22 0 13 0;
#X connect 23 0 3 0;
#X connect 23 0 2 0;
#X connect 27 0 30 0;
#X connect 30 0 0 0;
#X connect 31 0 16 0;
#X coords 0 -1 1 1 300 400 1 100 100;
#X restore 888 52 pd layer1;
#N canvas 0 23 1280 751 layer1 0;
#X obj 484 130 soundfiler;
#X floatatom 498 151 20 0 0 0 - - -;
#X obj 486 233 phasor~;
#X floatatom 553 197 5 0 0 0 - - -;
#X obj 485 291 *~;
#X obj 485 386 *~;
#X msg 493 200 0;
#X obj 179 153 bng 25 250 50 0 empty empty PLAY 0 -5 0 10 -4034 -1
-1;
#X obj 152 448 hsl 195 15 0 1 0 0 empty empty empty -2 -8 0 10 -262144
-1 -1 0 1;
#X obj 486 262 unsig~ 50;
#X obj 279 371 knob 32 32 0 1 0 0 empty empty position 0 -8 0 8 -262144
-1 -1 0 1;
#X msg 597 423 0;
#X obj 294 153 bng 25 250 50 0 empty empty STOP 0 -5 0 10 -258113 -1
-1;
#X obj 188 419 hsl 128 15 0 2 0 0 empty empty Pitch -2 -8 0 10 -262144
-1 -1 0 1;
#X obj 525 199 *~;
#X msg 618 233 1;
#X obj 485 356 lop~;
#X obj 181 372 knob 32 32 0.2 20000 0 0 empty empty tone 0 -8 0 8 -262144
-1 -1 3100 1;
#X obj 540 234 expr 1 /$f1;
#X obj 551 262 * 1000;
#X obj 524 288 delay;
#X obj 231 372 knob 32 32 0 1 0 0 empty empty Nivel 0 -8 0 8 -262144
-1 -1 2600 1;
#X msg 45 179 1;
#X obj 485 174 expr 44100 /$f1;
#N canvas 0 22 450 300 (subpatch) 0;
#X array layer4 271872 float 2;
#X coords 0 1 271872 -1 200 140 1 0 0;
#X restore 148 203 graph;
#X obj 625 565 cnv 15 100 60 empty empty empty 20 12 0 14 -233017 -66577
0;
#X text 150 432 position;
#X obj 484 72 inlet;
#X obj 484 549 outlet~;
#X text 162 119 comment;
#X msg 484 103 read -resize \$1 layer4;
#X obj 485 325 tabread4~ layer4;
#X connect 0 0 1 0;
#X connect 0 0 4 1;
#X connect 0 0 23 0;
#X connect 0 0 7 0;
#X connect 2 0 4 0;
#X connect 2 0 9 0;
#X connect 3 0 14 1;
#X connect 3 0 18 0;
#X connect 3 0 2 0;
#X connect 4 0 31 0;
#X connect 5 0 28 0;
#X connect 6 0 2 0;
#X connect 7 0 3 0;
#X connect 7 0 10 0;
#X connect 7 0 15 0;
#X connect 7 0 20 0;
#X connect 7 0 22 0;
#X connect 9 0 8 0;
#X connect 10 0 2 1;
#X connect 11 0 2 0;
#X connect 11 0 13 0;
#X connect 11 0 10 0;
#X connect 12 0 11 0;
#X connect 13 0 14 0;
#X connect 14 0 2 0;
#X connect 16 0 5 0;
#X connect 17 0 16 1;
#X connect 18 0 19 0;
#X connect 19 0 20 1;
#X connect 21 0 5 1;
#X connect 22 0 13 0;
#X connect 23 0 3 0;
#X connect 23 0 2 0;
#X connect 27 0 30 0;
#X connect 30 0 0 0;
#X connect 31 0 16 0;
#X coords 0 -1 1 1 300 400 1 100 100;
#X restore 1201 50 pd layer1;
#N canvas 0 23 1280 751 layer1 0;
#X obj 484 130 soundfiler;
#X floatatom 498 151 20 0 0 0 - - -;
#X obj 486 233 phasor~;
#X floatatom 553 197 5 0 0 0 - - -;
#X obj 485 291 *~;
#X obj 485 386 *~;
#X msg 493 200 0;
#X obj 179 153 bng 25 250 50 0 empty empty PLAY 0 -5 0 10 -4034 -1
-1;
#X obj 152 448 hsl 195 15 0 1 0 0 empty empty empty -2 -8 0 10 -262144
-1 -1 0 1;
#X obj 486 262 unsig~ 50;
#X obj 279 371 knob 32 32 0 1 0 0 empty empty position 0 -8 0 8 -262144
-1 -1 0 1;
#X msg 597 423 0;
#X obj 294 153 bng 25 250 50 0 empty empty STOP 0 -5 0 10 -258113 -1
-1;
#X obj 188 419 hsl 128 15 0 2 0 0 empty empty Pitch -2 -8 0 10 -262144
-1 -1 0 1;
#X obj 525 199 *~;
#X msg 618 233 1;
#X obj 485 356 lop~;
#X obj 181 372 knob 32 32 0.2 20000 0 0 empty empty tone 0 -8 0 8 -262144
-1 -1 3100 1;
#X obj 540 234 expr 1 /$f1;
#X obj 551 262 * 1000;
#X obj 524 288 delay;
#X obj 231 372 knob 32 32 0 1 0 0 empty empty Nivel 0 -8 0 8 -262144
-1 -1 2900 1;
#X msg 45 179 1;
#X obj 485 174 expr 44100 /$f1;
#N canvas 0 22 450 300 (subpatch) 0;
#X array layer5 4.86893e+06 float 2;
#X coords 0 1 4.86893e+06 -1 200 140 1 0 0;
#X restore 148 203 graph;
#X obj 625 565 cnv 15 100 60 empty empty empty 20 12 0 14 -233017 -66577
0;
#X text 150 432 position;
#X obj 484 72 inlet;
#X obj 484 549 outlet~;
#X text 162 119 comment;
#X msg 484 103 read -resize \$1 layer5;
#X obj 485 325 tabread4~ layer5;
#X connect 0 0 1 0;
#X connect 0 0 4 1;
#X connect 0 0 23 0;
#X connect 0 0 7 0;
#X connect 2 0 4 0;
#X connect 2 0 9 0;
#X connect 3 0 14 1;
#X connect 3 0 18 0;
#X connect 3 0 2 0;
#X connect 4 0 31 0;
#X connect 5 0 28 0;
#X connect 6 0 2 0;
#X connect 7 0 3 0;
#X connect 7 0 10 0;
#X connect 7 0 15 0;
#X connect 7 0 20 0;
#X connect 7 0 22 0;
#X connect 9 0 8 0;
#X connect 10 0 2 1;
#X connect 11 0 2 0;
#X connect 11 0 13 0;
#X connect 11 0 10 0;
#X connect 12 0 11 0;
#X connect 13 0 14 0;
#X connect 14 0 2 0;
#X connect 16 0 5 0;
#X connect 17 0 16 1;
#X connect 18 0 19 0;
#X connect 19 0 20 1;
#X connect 21 0 5 1;
#X connect 22 0 13 0;
#X connect 23 0 3 0;
#X connect 23 0 2 0;
#X connect 27 0 30 0;
#X connect 30 0 0 0;
#X connect 31 0 16 0;
#X coords 0 -1 1 1 300 400 1 100 100;
#X restore 1513 49 pd layer1;
#X obj 1133 1599 +~;
#X obj 1142 1118 dac~;
#X obj 577 29 r ssc2;
#X obj 888 29 r ssc3;
#X obj 1201 27 r ssc4;
#X obj 1513 26 r ssc5;
#N canvas 49 82 1280 686 layer1 1;
#X obj 484 130 soundfiler;
#X floatatom 498 151 20 0 0 0 - - -;
#X obj 486 233 phasor~;
#X floatatom 553 197 5 0 0 0 - - -;
#X obj 485 291 *~;
#X obj 485 386 *~;
#X msg 493 200 0;
#X obj 179 153 bng 25 250 50 0 empty empty PLAY 0 -5 0 10 -4034 -1
-1;
#X obj 152 448 hsl 195 15 0 1 0 0 empty empty empty -2 -8 0 10 -262144
-1 -1 0 1;
#X obj 486 262 unsig~ 50;
#X obj 279 371 knob 32 32 0 1 0 0 empty empty position 0 -8 0 8 -262144
-1 -1 0 1;
#X msg 597 423 0;
#X obj 294 153 bng 25 250 50 0 empty empty STOP 0 -5 0 10 -258113 -1
-1;
#X obj 188 419 hsl 128 15 0 2 0 0 empty empty Pitch -2 -8 0 10 -262144
-1 -1 6350 1;
#X obj 525 199 *~;
#X msg 618 233 1;
#X obj 485 356 lop~;
#X obj 181 372 knob 32 32 0.2 20000 0 0 empty empty tone 0 -8 0 8 -262144
-1 -1 1900 1;
#X obj 540 234 expr 1 /$f1;
#X obj 551 262 * 1000;
#X obj 524 288 delay;
#X obj 231 372 knob 32 32 0 1 0 0 empty empty Nivel 0 -8 0 8 -262144
-1 -1 2000 1;
#X msg 45 179 1;
#X obj 485 174 expr 44100 /$f1;
#N canvas 0 22 450 300 (subpatch) 0;
#X array layer6 1.82713e+06 float 2;
#X coords 0 1 1.82713e+06 -1 200 140 1 0 0;
#X restore 148 203 graph;
#X obj 625 565 cnv 15 100 60 empty empty empty 20 12 0 14 -233017 -66577
0;
#X text 150 432 position;
#X obj 484 72 inlet;
#X obj 484 549 outlet~;
#X text 162 119 comment;
#X msg 484 103 read -resize \$1 layer6;
#X obj 485 325 tabread4~ layer6;
#X connect 0 0 1 0;
#X connect 0 0 4 1;
#X connect 0 0 23 0;
#X connect 0 0 7 0;
#X connect 2 0 4 0;
#X connect 2 0 9 0;
#X connect 3 0 14 1;
#X connect 3 0 18 0;
#X connect 3 0 2 0;
#X connect 4 0 31 0;
#X connect 5 0 28 0;
#X connect 6 0 2 0;
#X connect 7 0 3 0;
#X connect 7 0 10 0;
#X connect 7 0 15 0;
#X connect 7 0 20 0;
#X connect 7 0 22 0;
#X connect 9 0 8 0;
#X connect 10 0 2 1;
#X connect 11 0 2 0;
#X connect 11 0 13 0;
#X connect 11 0 10 0;
#X connect 12 0 11 0;
#X connect 13 0 14 0;
#X connect 14 0 2 0;
#X connect 16 0 5 0;
#X connect 17 0 16 1;
#X connect 18 0 19 0;
#X connect 19 0 20 1;
#X connect 21 0 5 1;
#X connect 22 0 13 0;
#X connect 23 0 3 0;
#X connect 23 0 2 0;
#X connect 27 0 30 0;
#X connect 30 0 0 0;
#X connect 31 0 16 0;
#X coords 0 -1 1 1 300 400 1 100 100;
#X restore 330 586 pd layer1;
#N canvas 0 23 1280 751 layer1 0;
#X obj 484 130 soundfiler;
#X floatatom 498 151 20 0 0 0 - - -;
#X obj 486 233 phasor~;
#X floatatom 553 197 5 0 0 0 - - -;
#X obj 485 291 *~;
#X obj 485 386 *~;
#X msg 493 200 0;
#X obj 179 153 bng 25 250 50 0 empty empty PLAY 0 -5 0 10 -4034 -1
-1;
#X obj 152 448 hsl 195 15 0 1 0 0 empty empty empty -2 -8 0 10 -262144
-1 -1 0 1;
#X obj 486 262 unsig~ 50;
#X obj 279 371 knob 32 32 0 1 0 0 empty empty position 0 -8 0 8 -262144
-1 -1 0 1;
#X msg 597 423 0;
#X obj 294 153 bng 25 250 50 0 empty empty STOP 0 -5 0 10 -258113 -1
-1;
#X obj 188 419 hsl 128 15 0 2 0 0 empty empty Pitch -2 -8 0 10 -262144
-1 -1 6350 1;
#X obj 525 199 *~;
#X msg 618 233 1;
#X obj 485 356 lop~;
#X obj 181 372 knob 32 32 0.2 20000 0 0 empty empty tone 0 -8 0 8 -262144
-1 -1 1400 1;
#X obj 540 234 expr 1 /$f1;
#X obj 551 262 * 1000;
#X obj 524 288 delay;
#X obj 231 372 knob 32 32 0 1 0 0 empty empty Nivel 0 -8 0 8 -262144
-1 -1 1600 1;
#X msg 45 179 1;
#X obj 485 174 expr 44100 /$f1;
#N canvas 0 22 450 300 (subpatch) 0;
#X array layer7 1.82713e+06 float 2;
#X coords 0 1 1.82713e+06 -1 200 140 1 0 0;
#X restore 148 203 graph;
#X obj 625 565 cnv 15 100 60 empty empty empty 20 12 0 14 -233017 -66577
0;
#X text 150 432 position;
#X obj 484 72 inlet;
#X obj 484 549 outlet~;
#X text 162 119 comment;
#X msg 484 103 read -resize \$1 layer7;
#X obj 485 325 tabread4~ layer7;
#X connect 0 0 1 0;
#X connect 0 0 4 1;
#X connect 0 0 23 0;
#X connect 0 0 7 0;
#X connect 2 0 4 0;
#X connect 2 0 9 0;
#X connect 3 0 14 1;
#X connect 3 0 18 0;
#X connect 3 0 2 0;
#X connect 4 0 31 0;
#X connect 5 0 28 0;
#X connect 6 0 2 0;
#X connect 7 0 3 0;
#X connect 7 0 10 0;
#X connect 7 0 15 0;
#X connect 7 0 20 0;
#X connect 7 0 22 0;
#X connect 9 0 8 0;
#X connect 10 0 2 1;
#X connect 11 0 2 0;
#X connect 11 0 13 0;
#X connect 11 0 10 0;
#X connect 12 0 11 0;
#X connect 13 0 14 0;
#X connect 14 0 2 0;
#X connect 16 0 5 0;
#X connect 17 0 16 1;
#X connect 18 0 19 0;
#X connect 19 0 20 1;
#X connect 21 0 5 1;
#X connect 22 0 13 0;
#X connect 23 0 3 0;
#X connect 23 0 2 0;
#X connect 27 0 30 0;
#X connect 30 0 0 0;
#X connect 31 0 16 0;
#X coords 0 -1 1 1 300 400 1 100 100;
#X restore 643 584 pd layer1;
#N canvas 0 23 1280 751 layer1 0;
#X obj 484 130 soundfiler;
#X floatatom 498 151 20 0 0 0 - - -;
#X obj 486 233 phasor~;
#X floatatom 553 197 5 0 0 0 - - -;
#X obj 485 291 *~;
#X obj 485 386 *~;
#X msg 493 200 0;
#X obj 179 153 bng 25 250 50 0 empty empty PLAY 0 -5 0 10 -4034 -1
-1;
#X obj 152 448 hsl 195 15 0 1 0 0 empty empty empty -2 -8 0 10 -262144
-1 -1 0 1;
#X obj 486 262 unsig~ 50;
#X obj 279 371 knob 32 32 0 1 0 0 empty empty position 0 -8 0 8 -262144
-1 -1 0 1;
#X msg 597 423 0;
#X obj 294 153 bng 25 250 50 0 empty empty STOP 0 -5 0 10 -258113 -1
-1;
#X obj 188 419 hsl 128 15 0 2 0 0 empty empty Pitch -2 -8 0 10 -262144
-1 -1 6350 1;
#X obj 525 199 *~;
#X msg 618 233 1;
#X obj 485 356 lop~;
#X obj 181 372 knob 32 32 0.2 20000 0 0 empty empty tone 0 -8 0 8 -262144
-1 -1 1200 1;
#X obj 540 234 expr 1 /$f1;
#X obj 551 262 * 1000;
#X obj 524 288 delay;
#X obj 231 372 knob 32 32 0 1 0 0 empty empty Nivel 0 -8 0 8 -262144
-1 -1 1500 1;
#X msg 45 179 1;
#X obj 485 174 expr 44100 /$f1;
#N canvas 0 22 450 300 (subpatch) 0;
#X array layer8 1.82713e+06 float 2;
#X coords 0 1 1.82713e+06 -1 200 140 1 0 0;
#X restore 148 203 graph;
#X obj 625 565 cnv 15 100 60 empty empty empty 20 12 0 14 -233017 -66577
0;
#X text 150 432 position;
#X obj 484 72 inlet;
#X obj 484 549 outlet~;
#X text 162 119 comment;
#X msg 484 103 read -resize \$1 layer8;
#X obj 485 325 tabread4~ layer8;
#X connect 0 0 1 0;
#X connect 0 0 4 1;
#X connect 0 0 23 0;
#X connect 0 0 7 0;
#X connect 2 0 4 0;
#X connect 2 0 9 0;
#X connect 3 0 14 1;
#X connect 3 0 18 0;
#X connect 3 0 2 0;
#X connect 4 0 31 0;
#X connect 5 0 28 0;
#X connect 6 0 2 0;
#X connect 7 0 3 0;
#X connect 7 0 10 0;
#X connect 7 0 15 0;
#X connect 7 0 20 0;
#X connect 7 0 22 0;
#X connect 9 0 8 0;
#X connect 10 0 2 1;
#X connect 11 0 2 0;
#X connect 11 0 13 0;
#X connect 11 0 10 0;
#X connect 12 0 11 0;
#X connect 13 0 14 0;
#X connect 14 0 2 0;
#X connect 16 0 5 0;
#X connect 17 0 16 1;
#X connect 18 0 19 0;
#X connect 19 0 20 1;
#X connect 21 0 5 1;
#X connect 22 0 13 0;
#X connect 23 0 3 0;
#X connect 23 0 2 0;
#X connect 27 0 30 0;
#X connect 30 0 0 0;
#X connect 31 0 16 0;
#X coords 0 -1 1 1 300 400 1 100 100;
#X restore 954 584 pd layer1;
#N canvas 0 23 1280 751 layer1 0;
#X obj 484 130 soundfiler;
#X floatatom 498 151 20 0 0 0 - - -;
#X obj 486 233 phasor~;
#X floatatom 553 197 5 0 0 0 - - -;
#X obj 485 291 *~;
#X obj 485 386 *~;
#X msg 493 200 0;
#X obj 179 153 bng 25 250 50 0 empty empty PLAY 0 -5 0 10 -4034 -1
-1;
#X obj 152 448 hsl 195 15 0 1 0 0 empty empty empty -2 -8 0 10 -262144
-1 -1 0 1;
#X obj 486 262 unsig~ 50;
#X obj 279 371 knob 32 32 0 1 0 0 empty empty position 0 -8 0 8 -262144
-1 -1 0 1;
#X msg 597 423 0;
#X obj 294 153 bng 25 250 50 0 empty empty STOP 0 -5 0 10 -258113 -1
-1;
#X obj 188 419 hsl 128 15 0 2 0 0 empty empty Pitch -2 -8 0 10 -262144
-1 -1 6350 1;
#X obj 525 199 *~;
#X msg 618 233 1;
#X obj 485 356 lop~;
#X obj 181 372 knob 32 32 0.2 20000 0 0 empty empty tone 0 -8 0 8 -262144
-1 -1 1500 1;
#X obj 540 234 expr 1 /$f1;
#X obj 551 262 * 1000;
#X obj 524 288 delay;
#X obj 231 372 knob 32 32 0 1 0 0 empty empty Nivel 0 -8 0 8 -262144
-1 -1 1400 1;
#X msg 45 179 1;
#X obj 485 174 expr 44100 /$f1;
#N canvas 0 22 450 300 (subpatch) 0;
#X array layer9 1.82713e+06 float 2;
#X coords 0 1 1.82713e+06 -1 200 140 1 0 0;
#X restore 148 203 graph;
#X obj 625 565 cnv 15 100 60 empty empty empty 20 12 0 14 -233017 -66577
0;
#X text 150 432 position;
#X obj 484 72 inlet;
#X obj 484 549 outlet~;
#X text 162 119 comment;
#X msg 484 103 read -resize \$1 layer9;
#X obj 485 325 tabread4~ layer9;
#X connect 0 0 1 0;
#X connect 0 0 4 1;
#X connect 0 0 23 0;
#X connect 0 0 7 0;
#X connect 2 0 4 0;
#X connect 2 0 9 0;
#X connect 3 0 14 1;
#X connect 3 0 18 0;
#X connect 3 0 2 0;
#X connect 4 0 31 0;
#X connect 5 0 28 0;
#X connect 6 0 2 0;
#X connect 7 0 3 0;
#X connect 7 0 10 0;
#X connect 7 0 15 0;
#X connect 7 0 20 0;
#X connect 7 0 22 0;
#X connect 9 0 8 0;
#X connect 10 0 2 1;
#X connect 11 0 2 0;
#X connect 11 0 13 0;
#X connect 11 0 10 0;
#X connect 12 0 11 0;
#X connect 13 0 14 0;
#X connect 14 0 2 0;
#X connect 16 0 5 0;
#X connect 17 0 16 1;
#X connect 18 0 19 0;
#X connect 19 0 20 1;
#X connect 21 0 5 1;
#X connect 22 0 13 0;
#X connect 23 0 3 0;
#X connect 23 0 2 0;
#X connect 27 0 30 0;
#X connect 30 0 0 0;
#X connect 31 0 16 0;
#X coords 0 -1 1 1 300 400 1 100 100;
#X restore 1267 582 pd layer1;
#N canvas 0 23 1280 751 layer1 0;
#X obj 484 130 soundfiler;
#X floatatom 498 151 20 0 0 0 - - -;
#X obj 486 233 phasor~;
#X floatatom 553 197 5 0 0 0 - - -;
#X obj 485 291 *~;
#X obj 485 386 *~;
#X msg 493 200 0;
#X obj 179 153 bng 25 250 50 0 empty empty PLAY 0 -5 0 10 -4034 -1
-1;
#X obj 152 448 hsl 195 15 0 1 0 0 empty empty empty -2 -8 0 10 -262144
-1 -1 0 1;
#X obj 486 262 unsig~ 50;
#X obj 279 371 knob 32 32 0 1 0 0 empty empty position 0 -8 0 8 -262144
-1 -1 0 1;
#X msg 597 423 0;
#X obj 294 153 bng 25 250 50 0 empty empty STOP 0 -5 0 10 -258113 -1
-1;
#X obj 188 419 hsl 128 15 0 2 0 0 empty empty Pitch -2 -8 0 10 -262144
-1 -1 6350 1;
#X obj 525 199 *~;
#X msg 618 233 1;
#X obj 485 356 lop~;
#X obj 181 372 knob 32 32 0.2 20000 0 0 empty empty tone 0 -8 0 8 -262144
-1 -1 2300 1;
#X obj 540 234 expr 1 /$f1;
#X obj 551 262 * 1000;
#X obj 524 288 delay;
#X obj 231 372 knob 32 32 0 1 0 0 empty empty Nivel 0 -8 0 8 -262144
-1 -1 1600 1;
#X msg 45 179 1;
#X obj 485 174 expr 44100 /$f1;
#N canvas 0 22 450 300 (subpatch) 0;
#X array layer10 1.82713e+06 float 2;
#X coords 0 1 1.82713e+06 -1 200 140 1 0 0;
#X restore 148 203 graph;
#X obj 625 565 cnv 15 100 60 empty empty empty 20 12 0 14 -233017 -66577
0;
#X text 150 432 position;
#X obj 484 72 inlet;
#X obj 484 549 outlet~;
#X text 162 119 comment;
#X msg 484 103 read -resize \$1 layer10;
#X obj 485 325 tabread4~ layer10;
#X connect 0 0 1 0;
#X connect 0 0 4 1;
#X connect 0 0 23 0;
#X connect 0 0 7 0;
#X connect 2 0 4 0;
#X connect 2 0 9 0;
#X connect 3 0 14 1;
#X connect 3 0 18 0;
#X connect 3 0 2 0;
#X connect 4 0 31 0;
#X connect 5 0 28 0;
#X connect 6 0 2 0;
#X connect 7 0 3 0;
#X connect 7 0 10 0;
#X connect 7 0 15 0;
#X connect 7 0 20 0;
#X connect 7 0 22 0;
#X connect 9 0 8 0;
#X connect 10 0 2 1;
#X connect 11 0 2 0;
#X connect 11 0 13 0;
#X connect 11 0 10 0;
#X connect 12 0 11 0;
#X connect 13 0 14 0;
#X connect 14 0 2 0;
#X connect 16 0 5 0;
#X connect 17 0 16 1;
#X connect 18 0 19 0;
#X connect 19 0 20 1;
#X connect 21 0 5 1;
#X connect 22 0 13 0;
#X connect 23 0 3 0;
#X connect 23 0 2 0;
#X connect 27 0 30 0;
#X connect 30 0 0 0;
#X connect 31 0 16 0;
#X coords 0 -1 1 1 300 400 1 100 100;
#X restore 1579 581 pd layer1;
#N canvas 0 23 1280 751 layer1 0;
#X obj 484 130 soundfiler;
#X floatatom 498 151 20 0 0 0 - - -;
#X obj 486 233 phasor~;
#X floatatom 553 197 5 0 0 0 - - -;
#X obj 485 291 *~;
#X obj 485 386 *~;
#X msg 493 200 0;
#X obj 179 153 bng 25 250 50 0 empty empty PLAY 0 -5 0 10 -4034 -1
-1;
#X obj 152 448 hsl 195 15 0 1 0 0 empty empty empty -2 -8 0 10 -262144
-1 -1 0 1;
#X obj 486 262 unsig~ 50;
#X obj 279 371 knob 32 32 0 1 0 0 empty empty position 0 -8 0 8 -262144
-1 -1 0 1;
#X msg 597 423 0;
#X obj 294 153 bng 25 250 50 0 empty empty STOP 0 -5 0 10 -258113 -1
-1;
#X obj 188 419 hsl 128 15 0 2 0 0 empty empty Pitch -2 -8 0 10 -262144
-1 -1 6350 1;
#X obj 525 199 *~;
#X msg 618 233 1;
#X obj 485 356 lop~;
#X obj 181 372 knob 32 32 0.2 20000 0 0 empty empty tone 0 -8 0 8 -262144
-1 -1 1600 1;
#X obj 540 234 expr 1 /$f1;
#X obj 551 262 * 1000;
#X obj 524 288 delay;
#X obj 231 372 knob 32 32 0 1 0 0 empty empty Nivel 0 -8 0 8 -262144
-1 -1 1800 1;
#X msg 45 179 1;
#X obj 485 174 expr 44100 /$f1;
#N canvas 0 22 450 300 (subpatch) 0;
#X array layer11 1.82713e+06 float 2;
#X coords 0 1 1.82713e+06 -1 200 140 1 0 0;
#X restore 148 203 graph;
#X obj 625 565 cnv 15 100 60 empty empty empty 20 12 0 14 -233017 -66577
0;
#X text 150 432 position;
#X obj 484 72 inlet;
#X obj 484 549 outlet~;
#X text 162 119 comment;
#X msg 484 103 read -resize \$1 layer11;
#X obj 485 325 tabread4~ layer11;
#X connect 0 0 1 0;
#X connect 0 0 4 1;
#X connect 0 0 23 0;
#X connect 0 0 7 0;
#X connect 2 0 4 0;
#X connect 2 0 9 0;
#X connect 3 0 14 1;
#X connect 3 0 18 0;
#X connect 3 0 2 0;
#X connect 4 0 31 0;
#X connect 5 0 28 0;
#X connect 6 0 2 0;
#X connect 7 0 3 0;
#X connect 7 0 10 0;
#X connect 7 0 15 0;
#X connect 7 0 20 0;
#X connect 7 0 22 0;
#X connect 9 0 8 0;
#X connect 10 0 2 1;
#X connect 11 0 2 0;
#X connect 11 0 13 0;
#X connect 11 0 10 0;
#X connect 12 0 11 0;
#X connect 13 0 14 0;
#X connect 14 0 2 0;
#X connect 16 0 5 0;
#X connect 17 0 16 1;
#X connect 18 0 19 0;
#X connect 19 0 20 1;
#X connect 21 0 5 1;
#X connect 22 0 13 0;
#X connect 23 0 3 0;
#X connect 23 0 2 0;
#X connect 27 0 30 0;
#X connect 30 0 0 0;
#X connect 31 0 16 0;
#X coords 0 -1 1 1 300 400 1 100 100;
#X restore 358 1113 pd layer1;
#N canvas 0 23 1280 751 layer1 0;
#X obj 484 130 soundfiler;
#X floatatom 498 151 20 0 0 0 - - -;
#X obj 486 233 phasor~;
#X floatatom 553 197 5 0 0 0 - - -;
#X obj 485 291 *~;
#X obj 485 386 *~;
#X msg 493 200 0;
#X obj 179 153 bng 25 250 50 0 empty empty PLAY 0 -5 0 10 -4034 -1
-1;
#X obj 152 448 hsl 195 15 0 1 0 0 empty empty empty -2 -8 0 10 -262144
-1 -1 0 1;
#X obj 486 262 unsig~ 50;
#X obj 279 371 knob 32 32 0 1 0 0 empty empty position 0 -8 0 8 -262144
-1 -1 0 1;
#X msg 597 423 0;
#X obj 294 153 bng 25 250 50 0 empty empty STOP 0 -5 0 10 -258113 -1
-1;
#X obj 188 419 hsl 128 15 0 2 0 0 empty empty Pitch -2 -8 0 10 -262144
-1 -1 6350 1;
#X obj 525 199 *~;
#X msg 618 233 1;
#X obj 485 356 lop~;
#X obj 181 372 knob 32 32 0.2 20000 0 0 empty empty tone 0 -8 0 8 -262144
-1 -1 2400 1;
#X obj 540 234 expr 1 /$f1;
#X obj 551 262 * 1000;
#X obj 524 288 delay;
#X obj 231 372 knob 32 32 0 1 0 0 empty empty Nivel 0 -8 0 8 -262144
-1 -1 1900 1;
#X msg 45 179 1;
#X obj 485 174 expr 44100 /$f1;
#N canvas 0 22 450 300 (subpatch) 0;
#X array layer12 1.82713e+06 float 2;
#X coords 0 1 1.82713e+06 -1 200 140 1 0 0;
#X restore 148 203 graph;
#X obj 625 565 cnv 15 100 60 empty empty empty 20 12 0 14 -233017 -66577
0;
#X text 150 432 position;
#X obj 484 72 inlet;
#X obj 484 549 outlet~;
#X text 162 119 comment;
#X msg 484 103 read -resize \$1 layer12;
#X obj 485 325 tabread4~ layer12;
#X connect 0 0 1 0;
#X connect 0 0 4 1;
#X connect 0 0 23 0;
#X connect 0 0 7 0;
#X connect 2 0 4 0;
#X connect 2 0 9 0;
#X connect 3 0 14 1;
#X connect 3 0 18 0;
#X connect 3 0 2 0;
#X connect 4 0 31 0;
#X connect 5 0 28 0;
#X connect 6 0 2 0;
#X connect 7 0 3 0;
#X connect 7 0 10 0;
#X connect 7 0 15 0;
#X connect 7 0 20 0;
#X connect 7 0 22 0;
#X connect 9 0 8 0;
#X connect 10 0 2 1;
#X connect 11 0 2 0;
#X connect 11 0 13 0;
#X connect 11 0 10 0;
#X connect 12 0 11 0;
#X connect 13 0 14 0;
#X connect 14 0 2 0;
#X connect 16 0 5 0;
#X connect 17 0 16 1;
#X connect 18 0 19 0;
#X connect 19 0 20 1;
#X connect 21 0 5 1;
#X connect 22 0 13 0;
#X connect 23 0 3 0;
#X connect 23 0 2 0;
#X connect 27 0 30 0;
#X connect 30 0 0 0;
#X connect 31 0 16 0;
#X coords 0 -1 1 1 300 400 1 100 100;
#X restore 671 1111 pd layer1;
#N canvas 0 23 1280 751 layer1 0;
#X obj 484 130 soundfiler;
#X floatatom 498 151 20 0 0 0 - - -;
#X obj 486 233 phasor~;
#X floatatom 553 197 5 0 0 0 - - -;
#X obj 485 291 *~;
#X obj 485 386 *~;
#X msg 493 200 0;
#X obj 179 153 bng 25 250 50 0 empty empty PLAY 0 -5 0 10 -4034 -1
-1;
#X obj 152 448 hsl 195 15 0 1 0 0 empty empty empty -2 -8 0 10 -262144
-1 -1 0 1;
#X obj 486 262 unsig~ 50;
#X obj 279 371 knob 32 32 0 1 0 0 empty empty position 0 -8 0 8 -262144
-1 -1 0 1;
#X msg 597 423 0;
#X obj 294 153 bng 25 250 50 0 empty empty STOP 0 -5 0 10 -258113 -1
-1;
#X obj 188 419 hsl 128 15 0 2 0 0 empty empty Pitch -2 -8 0 10 -262144
-1 -1 6350 1;
#X obj 525 199 *~;
#X msg 618 233 1;
#X obj 485 356 lop~;
#X obj 181 372 knob 32 32 0.2 20000 0 0 empty empty tone 0 -8 0 8 -262144
-1 -1 1900 1;
#X obj 540 234 expr 1 /$f1;
#X obj 551 262 * 1000;
#X obj 524 288 delay;
#X obj 231 372 knob 32 32 0 1 0 0 empty empty Nivel 0 -8 0 8 -262144
-1 -1 2400 1;
#X msg 45 179 1;
#X obj 485 174 expr 44100 /$f1;
#N canvas 0 22 450 300 (subpatch) 0;
#X array layer13 1.82713e+06 float 2;
#X coords 0 1 1.82713e+06 -1 200 140 1 0 0;
#X restore 148 203 graph;
#X obj 625 565 cnv 15 100 60 empty empty empty 20 12 0 14 -233017 -66577
0;
#X text 150 432 position;
#X obj 484 72 inlet;
#X obj 484 549 outlet~;
#X text 162 119 comment;
#X msg 484 103 read -resize \$1 layer13;
#X obj 485 325 tabread4~ layer13;
#X connect 0 0 1 0;
#X connect 0 0 4 1;
#X connect 0 0 23 0;
#X connect 0 0 7 0;
#X connect 2 0 4 0;
#X connect 2 0 9 0;
#X connect 3 0 14 1;
#X connect 3 0 18 0;
#X connect 3 0 2 0;
#X connect 4 0 31 0;
#X connect 5 0 28 0;
#X connect 6 0 2 0;
#X connect 7 0 3 0;
#X connect 7 0 10 0;
#X connect 7 0 15 0;
#X connect 7 0 20 0;
#X connect 7 0 22 0;
#X connect 9 0 8 0;
#X connect 10 0 2 1;
#X connect 11 0 2 0;
#X connect 11 0 13 0;
#X connect 11 0 10 0;
#X connect 12 0 11 0;
#X connect 13 0 14 0;
#X connect 14 0 2 0;
#X connect 16 0 5 0;
#X connect 17 0 16 1;
#X connect 18 0 19 0;
#X connect 19 0 20 1;
#X connect 21 0 5 1;
#X connect 22 0 13 0;
#X connect 23 0 3 0;
#X connect 23 0 2 0;
#X connect 27 0 30 0;
#X connect 30 0 0 0;
#X connect 31 0 16 0;
#X coords 0 -1 1 1 300 400 1 100 100;
#X restore 982 1111 pd layer1;
#N canvas 0 23 1280 751 layer1 0;
#X obj 484 130 soundfiler;
#X floatatom 498 151 20 0 0 0 - - -;
#X obj 486 233 phasor~;
#X floatatom 553 197 5 0 0 0 - - -;
#X obj 485 291 *~;
#X obj 485 386 *~;
#X msg 493 200 0;
#X obj 179 153 bng 25 250 50 0 empty empty PLAY 0 -5 0 10 -4034 -1
-1;
#X obj 152 448 hsl 195 15 0 1 0 0 empty empty empty -2 -8 0 10 -262144
-1 -1 0 1;
#X obj 486 262 unsig~ 50;
#X obj 279 371 knob 32 32 0 1 0 0 empty empty position 0 -8 0 8 -262144
-1 -1 0 1;
#X msg 597 423 0;
#X obj 294 153 bng 25 250 50 0 empty empty STOP 0 -5 0 10 -258113 -1
-1;
#X obj 188 419 hsl 128 15 0 2 0 0 empty empty Pitch -2 -8 0 10 -262144
-1 -1 6350 1;
#X obj 525 199 *~;
#X msg 618 233 1;
#X obj 485 356 lop~;
#X obj 181 372 knob 32 32 0.2 20000 0 0 empty empty tone 0 -8 0 8 -262144
-1 -1 2100 1;
#X obj 540 234 expr 1 /$f1;
#X obj 551 262 * 1000;
#X obj 524 288 delay;
#X obj 231 372 knob 32 32 0 1 0 0 empty empty Nivel 0 -8 0 8 -262144
-1 -1 1300 1;
#X msg 45 179 1;
#X obj 485 174 expr 44100 /$f1;
#N canvas 0 22 450 300 (subpatch) 0;
#X array layer14 1.82713e+06 float 2;
#X coords 0 1 1.82713e+06 -1 200 140 1 0 0;
#X restore 148 203 graph;
#X obj 625 565 cnv 15 100 60 empty empty empty 20 12 0 14 -233017 -66577
0;
#X text 150 432 position;
#X obj 484 72 inlet;
#X obj 484 549 outlet~;
#X text 162 119 comment;
#X msg 484 103 read -resize \$1 layer14;
#X obj 485 325 tabread4~ layer14;
#X connect 0 0 1 0;
#X connect 0 0 4 1;
#X connect 0 0 23 0;
#X connect 0 0 7 0;
#X connect 2 0 4 0;
#X connect 2 0 9 0;
#X connect 3 0 14 1;
#X connect 3 0 18 0;
#X connect 3 0 2 0;
#X connect 4 0 31 0;
#X connect 5 0 28 0;
#X connect 6 0 2 0;
#X connect 7 0 3 0;
#X connect 7 0 10 0;
#X connect 7 0 15 0;
#X connect 7 0 20 0;
#X connect 7 0 22 0;
#X connect 9 0 8 0;
#X connect 10 0 2 1;
#X connect 11 0 2 0;
#X connect 11 0 13 0;
#X connect 11 0 10 0;
#X connect 12 0 11 0;
#X connect 13 0 14 0;
#X connect 14 0 2 0;
#X connect 16 0 5 0;
#X connect 17 0 16 1;
#X connect 18 0 19 0;
#X connect 19 0 20 1;
#X connect 21 0 5 1;
#X connect 22 0 13 0;
#X connect 23 0 3 0;
#X connect 23 0 2 0;
#X connect 27 0 30 0;
#X connect 30 0 0 0;
#X connect 31 0 16 0;
#X coords 0 -1 1 1 300 400 1 100 100;
#X restore 1295 1109 pd layer1;
#N canvas 0 23 1280 751 layer1 0;
#X obj 484 130 soundfiler;
#X floatatom 498 151 20 0 0 0 - - -;
#X obj 486 233 phasor~;
#X floatatom 553 197 5 0 0 0 - - -;
#X obj 485 291 *~;
#X obj 485 386 *~;
#X msg 493 200 0;
#X obj 179 153 bng 25 250 50 0 empty empty PLAY 0 -5 0 10 -4034 -1
-1;
#X obj 152 448 hsl 195 15 0 1 0 0 empty empty empty -2 -8 0 10 -262144
-1 -1 0 1;
#X obj 486 262 unsig~ 50;
#X obj 279 371 knob 32 32 0 1 0 0 empty empty position 0 -8 0 8 -262144
-1 -1 0 1;
#X msg 597 423 0;
#X obj 294 153 bng 25 250 50 0 empty empty STOP 0 -5 0 10 -258113 -1
-1;
#X obj 188 419 hsl 128 15 0 2 0 0 empty empty Pitch -2 -8 0 10 -262144
-1 -1 6350 1;
#X obj 525 199 *~;
#X msg 618 233 1;
#X obj 485 356 lop~;
#X obj 181 372 knob 32 32 0.2 20000 0 0 empty empty tone 0 -8 0 8 -262144
-1 -1 0 1;
#X obj 540 234 expr 1 /$f1;
#X obj 551 262 * 1000;
#X obj 524 288 delay;
#X obj 231 372 knob 32 32 0 1 0 0 empty empty Nivel 0 -8 0 8 -262144
-1 -1 0 1;
#X msg 45 179 1;
#X obj 485 174 expr 44100 /$f1;
#N canvas 0 22 450 300 (subpatch) 0;
#X array layer15 1.82713e+06 float 2;
#X coords 0 1 1.82713e+06 -1 200 140 1 0 0;
#X restore 148 203 graph;
#X obj 625 565 cnv 15 100 60 empty empty empty 20 12 0 14 -233017 -66577
0;
#X text 150 432 position;
#X obj 484 72 inlet;
#X obj 484 549 outlet~;
#X text 162 119 comment;
#X msg 484 103 read -resize \$1 layer15;
#X obj 485 325 tabread4~ layer15;
#X connect 0 0 1 0;
#X connect 0 0 4 1;
#X connect 0 0 23 0;
#X connect 0 0 7 0;
#X connect 2 0 4 0;
#X connect 2 0 9 0;
#X connect 3 0 14 1;
#X connect 3 0 18 0;
#X connect 3 0 2 0;
#X connect 4 0 31 0;
#X connect 5 0 28 0;
#X connect 6 0 2 0;
#X connect 7 0 3 0;
#X connect 7 0 10 0;
#X connect 7 0 15 0;
#X connect 7 0 20 0;
#X connect 7 0 22 0;
#X connect 9 0 8 0;
#X connect 10 0 2 1;
#X connect 11 0 2 0;
#X connect 11 0 13 0;
#X connect 11 0 10 0;
#X connect 12 0 11 0;
#X connect 13 0 14 0;
#X connect 14 0 2 0;
#X connect 16 0 5 0;
#X connect 17 0 16 1;
#X connect 18 0 19 0;
#X connect 19 0 20 1;
#X connect 21 0 5 1;
#X connect 22 0 13 0;
#X connect 23 0 3 0;
#X connect 23 0 2 0;
#X connect 27 0 30 0;
#X connect 30 0 0 0;
#X connect 31 0 16 0;
#X coords 0 -1 1 1 300 400 1 100 100;
#X restore 1607 1108 pd layer1;
#X obj 330 563 r ssc6;
#X obj 643 561 r ssc7;
#X obj 954 561 r ssc8;
#X obj 1267 559 r ssc9;
#X obj 1580 558 r ssc10;
#X obj 358 1090 r ssc11;
#X obj 671 1088 r ssc12;
#X obj 982 1088 r ssc13;
#X obj 1295 1086 r ssc14;
#X obj 1607 1085 r ssc15;
#N canvas 0 23 1280 751 layer1 0;
#X obj 484 130 soundfiler;
#X floatatom 498 151 20 0 0 0 - - -;
#X obj 486 233 phasor~;
#X floatatom 553 197 5 0 0 0 - - -;
#X obj 485 291 *~;
#X obj 485 386 *~;
#X msg 493 200 0;
#X obj 179 153 bng 25 250 50 0 empty empty PLAY 0 -5 0 10 -4034 -1
-1;
#X obj 152 448 hsl 195 15 0 1 0 0 empty empty empty -2 -8 0 10 -262144
-1 -1 0 1;
#X obj 486 262 unsig~ 50;
#X obj 279 371 knob 32 32 0 1 0 0 empty empty position 0 -8 0 8 -262144
-1 -1 0 1;
#X msg 597 423 0;
#X obj 294 153 bng 25 250 50 0 empty empty STOP 0 -5 0 10 -258113 -1
-1;
#X obj 188 419 hsl 128 15 0 2 0 0 empty empty Pitch -2 -8 0 10 -262144
-1 -1 6350 1;
#X obj 525 199 *~;
#X msg 618 233 1;
#X obj 485 356 lop~;
#X obj 181 372 knob 32 32 0.2 20000 0 0 empty empty tone 0 -8 0 8 -262144
-1 -1 1700 1;
#X obj 540 234 expr 1 /$f1;
#X obj 551 262 * 1000;
#X obj 524 288 delay;
#X obj 231 372 knob 32 32 0 1 0 0 empty empty Nivel 0 -8 0 8 -262144
-1 -1 2600 1;
#X msg 45 179 1;
#X obj 485 174 expr 44100 /$f1;
#N canvas 0 22 450 300 (subpatch) 0;
#X array layer16 1.82713e+06 float 2;
#X coords 0 1 1.82713e+06 -1 200 140 1 0 0;
#X restore 148 203 graph;
#X obj 625 565 cnv 15 100 60 empty empty empty 20 12 0 14 -233017 -66577
0;
#X text 150 432 position;
#X obj 484 72 inlet;
#X obj 484 549 outlet~;
#X text 162 119 comment;
#X msg 484 103 read -resize \$1 layer16;
#X obj 485 325 tabread4~ layer16;
#X connect 0 0 1 0;
#X connect 0 0 4 1;
#X connect 0 0 23 0;
#X connect 0 0 7 0;
#X connect 2 0 4 0;
#X connect 2 0 9 0;
#X connect 3 0 14 1;
#X connect 3 0 18 0;
#X connect 3 0 2 0;
#X connect 4 0 31 0;
#X connect 5 0 28 0;
#X connect 6 0 2 0;
#X connect 7 0 3 0;
#X connect 7 0 10 0;
#X connect 7 0 15 0;
#X connect 7 0 20 0;
#X connect 7 0 22 0;
#X connect 9 0 8 0;
#X connect 10 0 2 1;
#X connect 11 0 2 0;
#X connect 11 0 13 0;
#X connect 11 0 10 0;
#X connect 12 0 11 0;
#X connect 13 0 14 0;
#X connect 14 0 2 0;
#X connect 16 0 5 0;
#X connect 17 0 16 1;
#X connect 18 0 19 0;
#X connect 19 0 20 1;
#X connect 21 0 5 1;
#X connect 22 0 13 0;
#X connect 23 0 3 0;
#X connect 23 0 2 0;
#X connect 27 0 30 0;
#X connect 30 0 0 0;
#X connect 31 0 16 0;
#X coords 0 -1 1 1 300 400 1 100 100;
#X restore 353 1654 pd layer1;
#N canvas 0 23 1280 751 layer1 0;
#X obj 484 130 soundfiler;
#X floatatom 498 151 20 0 0 0 - - -;
#X obj 486 233 phasor~;
#X floatatom 553 197 5 0 0 0 - - -;
#X obj 485 291 *~;
#X obj 485 386 *~;
#X msg 493 200 0;
#X obj 179 153 bng 25 250 50 0 empty empty PLAY 0 -5 0 10 -4034 -1
-1;
#X obj 152 448 hsl 195 15 0 1 0 0 empty empty empty -2 -8 0 10 -262144
-1 -1 0 1;
#X obj 486 262 unsig~ 50;
#X obj 279 371 knob 32 32 0 1 0 0 empty empty position 0 -8 0 8 -262144
-1 -1 0 1;
#X msg 597 423 0;
#X obj 294 153 bng 25 250 50 0 empty empty STOP 0 -5 0 10 -258113 -1
-1;
#X obj 188 419 hsl 128 15 0 2 0 0 empty empty Pitch -2 -8 0 10 -262144
-1 -1 6350 1;
#X obj 525 199 *~;
#X msg 618 233 1;
#X obj 485 356 lop~;
#X obj 181 372 knob 32 32 0.2 20000 0 0 empty empty tone 0 -8 0 8 -262144
-1 -1 2200 1;
#X obj 540 234 expr 1 /$f1;
#X obj 551 262 * 1000;
#X obj 524 288 delay;
#X obj 231 372 knob 32 32 0 1 0 0 empty empty Nivel 0 -8 0 8 -262144
-1 -1 1800 1;
#X msg 45 179 1;
#X obj 485 174 expr 44100 /$f1;
#N canvas 0 22 450 300 (subpatch) 0;
#X array layer17 1.82713e+06 float 2;
#X coords 0 1 1.82713e+06 -1 200 140 1 0 0;
#X restore 148 203 graph;
#X obj 625 565 cnv 15 100 60 empty empty empty 20 12 0 14 -233017 -66577
0;
#X text 150 432 position;
#X obj 484 72 inlet;
#X obj 484 549 outlet~;
#X text 162 119 comment;
#X msg 484 103 read -resize \$1 layer17;
#X obj 485 325 tabread4~ layer17;
#X connect 0 0 1 0;
#X connect 0 0 4 1;
#X connect 0 0 23 0;
#X connect 0 0 7 0;
#X connect 2 0 4 0;
#X connect 2 0 9 0;
#X connect 3 0 14 1;
#X connect 3 0 18 0;
#X connect 3 0 2 0;
#X connect 4 0 31 0;
#X connect 5 0 28 0;
#X connect 6 0 2 0;
#X connect 7 0 3 0;
#X connect 7 0 10 0;
#X connect 7 0 15 0;
#X connect 7 0 20 0;
#X connect 7 0 22 0;
#X connect 9 0 8 0;
#X connect 10 0 2 1;
#X connect 11 0 2 0;
#X connect 11 0 13 0;
#X connect 11 0 10 0;
#X connect 12 0 11 0;
#X connect 13 0 14 0;
#X connect 14 0 2 0;
#X connect 16 0 5 0;
#X connect 17 0 16 1;
#X connect 18 0 19 0;
#X connect 19 0 20 1;
#X connect 21 0 5 1;
#X connect 22 0 13 0;
#X connect 23 0 3 0;
#X connect 23 0 2 0;
#X connect 27 0 30 0;
#X connect 30 0 0 0;
#X connect 31 0 16 0;
#X coords 0 -1 1 1 300 400 1 100 100;
#X restore 666 1652 pd layer1;
#N canvas 0 23 1280 751 layer1 0;
#X obj 484 130 soundfiler;
#X floatatom 498 151 20 0 0 0 - - -;
#X obj 486 233 phasor~;
#X floatatom 553 197 5 0 0 0 - - -;
#X obj 485 291 *~;
#X obj 485 386 *~;
#X msg 493 200 0;
#X obj 179 153 bng 25 250 50 0 empty empty PLAY 0 -5 0 10 -4034 -1
-1;
#X obj 152 448 hsl 195 15 0 1 0 0 empty empty empty -2 -8 0 10 -262144
-1 -1 0 1;
#X obj 486 262 unsig~ 50;
#X obj 279 371 knob 32 32 0 1 0 0 empty empty position 0 -8 0 8 -262144
-1 -1 0 1;
#X msg 597 423 0;
#X obj 294 153 bng 25 250 50 0 empty empty STOP 0 -5 0 10 -258113 -1
-1;
#X obj 188 419 hsl 128 15 0 2 0 0 empty empty Pitch -2 -8 0 10 -262144
-1 -1 6350 1;
#X obj 525 199 *~;
#X msg 618 233 1;
#X obj 485 356 lop~;
#X obj 181 372 knob 32 32 0.2 20000 0 0 empty empty tone 0 -8 0 8 -262144
-1 -1 2700 1;
#X obj 540 234 expr 1 /$f1;
#X obj 551 262 * 1000;
#X obj 524 288 delay;
#X obj 231 372 knob 32 32 0 1 0 0 empty empty Nivel 0 -8 0 8 -262144
-1 -1 2600 1;
#X msg 45 179 1;
#X obj 485 174 expr 44100 /$f1;
#N canvas 0 22 450 300 (subpatch) 0;
#X array layer18 1.82713e+06 float 2;
#X coords 0 1 1.82713e+06 -1 200 140 1 0 0;
#X restore 148 203 graph;
#X obj 625 565 cnv 15 100 60 empty empty empty 20 12 0 14 -233017 -66577
0;
#X text 150 432 position;
#X obj 484 72 inlet;
#X obj 484 549 outlet~;
#X text 162 119 comment;
#X msg 484 103 read -resize \$1 layer18;
#X obj 485 325 tabread4~ layer18;
#X connect 0 0 1 0;
#X connect 0 0 4 1;
#X connect 0 0 23 0;
#X connect 0 0 7 0;
#X connect 2 0 4 0;
#X connect 2 0 9 0;
#X connect 3 0 14 1;
#X connect 3 0 18 0;
#X connect 3 0 2 0;
#X connect 4 0 31 0;
#X connect 5 0 28 0;
#X connect 6 0 2 0;
#X connect 7 0 3 0;
#X connect 7 0 10 0;
#X connect 7 0 15 0;
#X connect 7 0 20 0;
#X connect 7 0 22 0;
#X connect 9 0 8 0;
#X connect 10 0 2 1;
#X connect 11 0 2 0;
#X connect 11 0 13 0;
#X connect 11 0 10 0;
#X connect 12 0 11 0;
#X connect 13 0 14 0;
#X connect 14 0 2 0;
#X connect 16 0 5 0;
#X connect 17 0 16 1;
#X connect 18 0 19 0;
#X connect 19 0 20 1;
#X connect 21 0 5 1;
#X connect 22 0 13 0;
#X connect 23 0 3 0;
#X connect 23 0 2 0;
#X connect 27 0 30 0;
#X connect 30 0 0 0;
#X connect 31 0 16 0;
#X coords 0 -1 1 1 300 400 1 100 100;
#X restore 977 1652 pd layer1;
#N canvas 0 23 1280 751 layer1 0;
#X obj 484 130 soundfiler;
#X floatatom 498 151 20 0 0 0 - - -;
#X obj 486 233 phasor~;
#X floatatom 553 197 5 0 0 0 - - -;
#X obj 485 291 *~;
#X obj 485 386 *~;
#X msg 493 200 0;
#X obj 179 153 bng 25 250 50 0 empty empty PLAY 0 -5 0 10 -4034 -1
-1;
#X obj 152 448 hsl 195 15 0 1 0 0 empty empty empty -2 -8 0 10 -262144
-1 -1 0 1;
#X obj 486 262 unsig~ 50;
#X obj 279 371 knob 32 32 0 1 0 0 empty empty position 0 -8 0 8 -262144
-1 -1 0 1;
#X msg 597 423 0;
#X obj 294 153 bng 25 250 50 0 empty empty STOP 0 -5 0 10 -258113 -1
-1;
#X obj 188 419 hsl 128 15 0 2 0 0 empty empty Pitch -2 -8 0 10 -262144
-1 -1 6350 1;
#X obj 525 199 *~;
#X msg 618 233 1;
#X obj 485 356 lop~;
#X obj 181 372 knob 32 32 0.2 20000 0 0 empty empty tone 0 -8 0 8 -262144
-1 -1 1600 1;
#X obj 540 234 expr 1 /$f1;
#X obj 551 262 * 1000;
#X obj 524 288 delay;
#X obj 231 372 knob 32 32 0 1 0 0 empty empty Nivel 0 -8 0 8 -262144
-1 -1 2000 1;
#X msg 45 179 1;
#X obj 485 174 expr 44100 /$f1;
#N canvas 0 22 450 300 (subpatch) 0;
#X array layer19 1.82713e+06 float 2;
#X coords 0 1 1.82713e+06 -1 200 140 1 0 0;
#X restore 148 203 graph;
#X obj 625 565 cnv 15 100 60 empty empty empty 20 12 0 14 -233017 -66577
0;
#X text 150 432 position;
#X obj 484 72 inlet;
#X obj 484 549 outlet~;
#X text 162 119 comment;
#X msg 484 103 read -resize \$1 layer19;
#X obj 485 325 tabread4~ layer19;
#X connect 0 0 1 0;
#X connect 0 0 4 1;
#X connect 0 0 23 0;
#X connect 0 0 7 0;
#X connect 2 0 4 0;
#X connect 2 0 9 0;
#X connect 3 0 14 1;
#X connect 3 0 18 0;
#X connect 3 0 2 0;
#X connect 4 0 31 0;
#X connect 5 0 28 0;
#X connect 6 0 2 0;
#X connect 7 0 3 0;
#X connect 7 0 10 0;
#X connect 7 0 15 0;
#X connect 7 0 20 0;
#X connect 7 0 22 0;
#X connect 9 0 8 0;
#X connect 10 0 2 1;
#X connect 11 0 2 0;
#X connect 11 0 13 0;
#X connect 11 0 10 0;
#X connect 12 0 11 0;
#X connect 13 0 14 0;
#X connect 14 0 2 0;
#X connect 16 0 5 0;
#X connect 17 0 16 1;
#X connect 18 0 19 0;
#X connect 19 0 20 1;
#X connect 21 0 5 1;
#X connect 22 0 13 0;
#X connect 23 0 3 0;
#X connect 23 0 2 0;
#X connect 27 0 30 0;
#X connect 30 0 0 0;
#X connect 31 0 16 0;
#X coords 0 -1 1 1 300 400 1 100 100;
#X restore 1290 1650 pd layer1;
#N canvas 0 23 1280 751 layer1 0;
#X obj 484 130 soundfiler;
#X floatatom 498 151 20 0 0 0 - - -;
#X obj 486 233 phasor~;
#X floatatom 553 197 5 0 0 0 - - -;
#X obj 485 291 *~;
#X obj 485 386 *~;
#X msg 493 200 0;
#X obj 179 153 bng 25 250 50 0 empty empty PLAY 0 -5 0 10 -4034 -1
-1;
#X obj 152 448 hsl 195 15 0 1 0 0 empty empty empty -2 -8 0 10 -262144
-1 -1 0 1;
#X obj 486 262 unsig~ 50;
#X obj 279 371 knob 32 32 0 1 0 0 empty empty position 0 -8 0 8 -262144
-1 -1 0 1;
#X msg 597 423 0;
#X obj 294 153 bng 25 250 50 0 empty empty STOP 0 -5 0 10 -258113 -1
-1;
#X obj 188 419 hsl 128 15 0 2 0 0 empty empty Pitch -2 -8 0 10 -262144
-1 -1 6350 1;
#X obj 525 199 *~;
#X msg 618 233 1;
#X obj 485 356 lop~;
#X obj 181 372 knob 32 32 0.2 20000 0 0 empty empty tone 0 -8 0 8 -262144
-1 -1 0 1;
#X obj 540 234 expr 1 /$f1;
#X obj 551 262 * 1000;
#X obj 524 288 delay;
#X obj 231 372 knob 32 32 0 1 0 0 empty empty Nivel 0 -8 0 8 -262144
-1 -1 0 1;
#X msg 45 179 1;
#X obj 485 174 expr 44100 /$f1;
#N canvas 0 22 450 300 (subpatch) 0;
#X array layer20 1.82713e+06 float 2;
#X coords 0 1 1.82713e+06 -1 200 140 1 0 0;
#X restore 148 203 graph;
#X obj 625 565 cnv 15 100 60 empty empty empty 20 12 0 14 -233017 -66577
0;
#X text 150 432 position;
#X obj 484 72 inlet;
#X obj 484 549 outlet~;
#X text 162 119 comment;
#X msg 484 103 read -resize \$1 layer20;
#X obj 485 325 tabread4~ layer20;
#X connect 0 0 1 0;
#X connect 0 0 4 1;
#X connect 0 0 23 0;
#X connect 0 0 7 0;
#X connect 2 0 4 0;
#X connect 2 0 9 0;
#X connect 3 0 14 1;
#X connect 3 0 18 0;
#X connect 3 0 2 0;
#X connect 4 0 31 0;
#X connect 5 0 28 0;
#X connect 6 0 2 0;
#X connect 7 0 3 0;
#X connect 7 0 10 0;
#X connect 7 0 15 0;
#X connect 7 0 20 0;
#X connect 7 0 22 0;
#X connect 9 0 8 0;
#X connect 10 0 2 1;
#X connect 11 0 2 0;
#X connect 11 0 13 0;
#X connect 11 0 10 0;
#X connect 12 0 11 0;
#X connect 13 0 14 0;
#X connect 14 0 2 0;
#X connect 16 0 5 0;
#X connect 17 0 16 1;
#X connect 18 0 19 0;
#X connect 19 0 20 1;
#X connect 21 0 5 1;
#X connect 22 0 13 0;
#X connect 23 0 3 0;
#X connect 23 0 2 0;
#X connect 27 0 30 0;
#X connect 30 0 0 0;
#X connect 31 0 16 0;
#X coords 0 -1 1 1 300 400 1 100 100;
#X restore 1602 1649 pd layer1;
#X obj 353 1631 r ssc16;
#X obj 666 1629 r ssc17;
#X obj 977 1629 r ssc18;
#X obj 1290 1627 r ssc19;
#X obj 1602 1626 r ssc20;
#X obj -155 20 netreceive 3000;
#X connect 5 0 47 0;
#X connect 5 0 48 0;
#X connect 5 0 34 0;
#X connect 5 0 35 0;
#X connect 5 0 36 0;
#X connect 5 0 37 0;
#X connect 5 0 50 0;
#X connect 5 0 55 0;
#X connect 5 0 58 0;
#X connect 5 0 61 0;
#X connect 5 0 64 0;
#X connect 5 0 86 0;
#X connect 5 0 87 0;
#X connect 5 0 88 0;
#X connect 5 0 89 0;
#X connect 5 0 90 0;
#X connect 6 0 17 0;
#X connect 6 0 27 0;
#X connect 7 0 19 0;
#X connect 7 0 27 0;
#X connect 8 0 20 0;
#X connect 8 0 27 0;
#X connect 9 0 21 0;
#X connect 9 0 27 0;
#X connect 10 0 22 0;
#X connect 10 0 27 0;
#X connect 11 0 23 0;
#X connect 11 0 27 0;
#X connect 12 0 13 0;
#X connect 12 0 14 0;
#X connect 13 0 70 0;
#X connect 14 0 5 0;
#X connect 15 0 49 1;
#X connect 16 0 49 0;
#X connect 17 0 18 0;
#X connect 18 0 40 1;
#X connect 19 0 18 0;
#X connect 20 0 18 0;
#X connect 21 0 18 0;
#X connect 22 0 18 0;
#X connect 23 0 18 0;
#X connect 27 0 40 0;
#X connect 28 0 6 0;
#X connect 29 0 7 0;
#X connect 30 0 8 0;
#X connect 31 0 9 0;
#X connect 32 0 10 0;
#X connect 33 0 11 0;
#X connect 34 0 41 0;
#X connect 35 0 46 0;
#X connect 36 0 45 0;
#X connect 37 0 44 0;
#X connect 38 0 6 0;
#X connect 38 0 7 0;
#X connect 38 0 8 0;
#X connect 38 0 9 0;
#X connect 38 0 10 0;
#X connect 38 0 11 0;
#X connect 39 0 40 0;
#X connect 39 0 43 0;
#X connect 39 0 42 0;
#X connect 39 0 41 0;
#X connect 39 0 46 0;
#X connect 39 0 45 0;
#X connect 39 0 44 0;
#X connect 41 0 30 0;
#X connect 42 0 29 0;
#X connect 43 0 28 0;
#X connect 44 0 33 0;
#X connect 45 0 32 0;
#X connect 46 0 31 0;
#X connect 47 0 43 0;
#X connect 48 0 42 0;
#X connect 49 0 12 0;
#X connect 50 0 51 0;
#X connect 50 0 52 0;
#X connect 51 0 71 0;
#X connect 52 0 51 1;
#X connect 53 0 72 0;
#X connect 54 0 53 1;
#X connect 55 0 53 0;
#X connect 55 0 54 0;
#X connect 56 0 73 0;
#X connect 57 0 56 1;
#X connect 58 0 56 0;
#X connect 58 0 57 0;
#X connect 59 0 74 0;
#X connect 60 0 59 1;
#X connect 61 0 59 0;
#X connect 61 0 60 0;
#X connect 62 0 75 0;
#X connect 63 0 62 1;
#X connect 64 0 62 0;
#X connect 64 0 63 0;
#X connect 65 0 39 0;
#X connect 66 0 15 0;
#X connect 67 0 49 0;
#X connect 68 0 67 0;
#X connect 70 0 12 1;
#X connect 70 0 69 0;
#X connect 76 0 141 0;
#X connect 77 0 76 1;
#X connect 78 0 142 0;
#X connect 79 0 78 1;
#X connect 80 0 143 0;
#X connect 81 0 80 1;
#X connect 82 0 144 0;
#X connect 83 0 82 1;
#X connect 84 0 145 0;
#X connect 85 0 84 1;
#X connect 86 0 76 0;
#X connect 86 0 77 0;
#X connect 87 0 78 0;
#X connect 87 0 79 0;
#X connect 88 0 80 0;
#X connect 88 0 81 0;
#X connect 89 0 82 0;
#X connect 89 0 83 0;
#X connect 90 0 84 0;
#X connect 90 0 85 0;
#X connect 91 0 146 0;
#X connect 92 0 91 1;
#X connect 93 0 147 0;
#X connect 94 0 93 1;
#X connect 95 0 148 0;
#X connect 96 0 95 1;
#X connect 97 0 149 0;
#X connect 98 0 97 1;
#X connect 99 0 150 0;
#X connect 100 0 99 1;
#X connect 101 0 91 0;
#X connect 101 0 92 0;
#X connect 102 0 93 0;
#X connect 102 0 94 0;
#X connect 103 0 95 0;
#X connect 103 0 96 0;
#X connect 104 0 97 0;
#X connect 104 0 98 0;
#X connect 105 0 99 0;
#X connect 105 0 100 0;
#X connect 106 0 151 0;
#X connect 107 0 106 1;
#X connect 108 0 152 0;
#X connect 109 0 108 1;
#X connect 110 0 153 0;
#X connect 111 0 110 1;
#X connect 112 0 154 0;
#X connect 113 0 112 1;
#X connect 114 0 155 0;
#X connect 115 0 114 1;
#X connect 116 0 106 0;
#X connect 116 0 107 0;
#X connect 117 0 108 0;
#X connect 117 0 109 0;
#X connect 118 0 110 0;
#X connect 118 0 111 0;
#X connect 119 0 112 0;
#X connect 119 0 113 0;
#X connect 120 0 114 0;
#X connect 120 0 115 0;
#X connect 156 0 0 0;
#X connect 156 1 1 0;
#X connect 156 2 2 0;
#X connect 156 3 3 0;
#X connect 156 4 4 0;
#X connect 156 5 157 0;
#X connect 156 6 158 0;
#X connect 156 7 159 0;
#X connect 156 8 160 0;
#X connect 156 9 161 0;
#X connect 156 10 162 0;
#X connect 156 11 163 0;
#X connect 156 12 164 0;
#X connect 156 13 165 0;
#X connect 156 14 166 0;
#X connect 156 15 167 0;
#X connect 156 16 168 0;
#X connect 156 17 169 0;
#X connect 156 18 170 0;
#X connect 156 19 171 0;
#X connect 172 0 173 0;
#X connect 173 0 178 0;
#X connect 174 0 178 0;
#X connect 175 0 178 0;
#X connect 176 0 178 0;
#X connect 177 0 178 0;
#X connect 178 0 179 0;
#X connect 178 0 179 1;
#X connect 180 0 174 0;
#X connect 181 0 175 0;
#X connect 182 0 176 0;
#X connect 183 0 177 0;
#X connect 184 0 178 0;
#X connect 185 0 178 0;
#X connect 186 0 178 0;
#X connect 187 0 178 0;
#X connect 188 0 178 0;
#X connect 189 0 178 0;
#X connect 190 0 178 0;
#X connect 191 0 178 0;
#X connect 192 0 178 0;
#X connect 193 0 178 0;
#X connect 194 0 184 0;
#X connect 195 0 185 0;
#X connect 196 0 186 0;
#X connect 197 0 187 0;
#X connect 198 0 188 0;
#X connect 199 0 189 0;
#X connect 200 0 190 0;
#X connect 201 0 191 0;
#X connect 202 0 192 0;
#X connect 203 0 193 0;
#X connect 204 0 178 0;
#X connect 205 0 178 0;
#X connect 206 0 178 0;
#X connect 207 0 178 0;
#X connect 208 0 178 0;
#X connect 209 0 204 0;
#X connect 210 0 205 0;
#X connect 211 0 206 0;
#X connect 212 0 207 0;
#X connect 213 0 208 0;
#X connect 214 0 156 0;
